<?xml version="1.0" standalone="no"?>
<!DOCTYPE svg PUBLIC "-//W3C//DTD SVG 20010904//EN"
 "http://www.w3.org/TR/2001/REC-SVG-20010904/DTD/svg10.dtd">
<svg version="1.0" xmlns="http://www.w3.org/2000/svg"
 width="512.000000pt" height="512.000000pt" viewBox="0 0 512.000000 512.000000"
 preserveAspectRatio="xMidYMid meet">
<metadata>
Created by potrace 1.14, written by Peter Selinger 2001-2017
</metadata>
<g transform="translate(0.000000,512.000000) scale(0.100000,-0.100000)"
fill="#000000" stroke="none">
<path d="M2949 3893 c-6 -16 -236 -624 -510 -1352 -275 -728 -502 -1328 -505
-1333 -3 -5 46 -7 116 -6 l122 3 246 654 247 654 3 -682 2 -682 108 3 107 3 3
53 3 52 50 0 49 0 0 55 0 55 55 0 55 0 0 55 0 55 55 0 55 0 0 -110 0 -110 50
0 50 0 0 -105 0 -105 55 0 55 0 0 -55 0 -55 110 0 110 0 0 55 0 55 55 0 55 0
0 105 0 105 -55 0 -55 0 0 110 0 110 -55 0 -55 0 0 50 0 50 215 0 215 0 0 110
0 110 -55 0 c-54 0 -55 1 -55 28 0 26 44 58 575 418 l575 389 -2 100 -3 99
-580 394 -580 394 -3 -123 c-2 -90 1 -126 10 -134 7 -7 219 -151 470 -320 252
-169 456 -310 453 -314 -2 -4 -213 -149 -469 -321 l-466 -314 0 -93 0 -93 -40
0 -40 0 0 55 0 55 -55 0 -55 0 0 55 0 55 -55 0 -55 0 0 49 0 50 -52 3 -53 3
-3 53 -3 52 -50 0 -49 0 0 55 0 55 -55 0 -55 0 0 55 0 55 -55 0 -55 0 0 55 0
55 -55 0 -55 0 0 50 0 50 -50 0 -50 0 0 55 0 55 -40 0 c-22 0 -40 4 -40 9 0 5
84 231 186 502 103 272 189 502 192 512 4 15 -6 17 -112 17 l-116 0 -11 -27z
m-69 -1178 l0 -55 55 0 55 0 0 -55 0 -55 55 0 55 0 0 -50 0 -50 55 0 55 0 0
-55 0 -55 50 0 50 0 0 -55 0 -55 55 0 55 0 0 -55 0 -55 55 0 55 0 0 -50 0 -50
55 0 55 0 0 -55 0 -55 50 0 50 0 0 -55 0 -55 55 0 55 0 0 -50 0 -50 -215 0
-215 0 0 -110 0 -110 55 0 55 0 0 -110 0 -110 55 0 55 0 0 -105 0 -105 -110 0
-110 0 0 105 0 105 -50 0 -50 0 0 110 0 110 -55 0 -55 0 0 55 0 55 -55 0 -55
0 0 -55 0 -55 -55 0 -55 0 0 -55 0 -55 -55 0 -55 0 0 -55 0 -55 -50 0 -50 0 0
755 0 755 50 0 50 0 0 -55z"/>
<path d="M708 3227 l-578 -392 0 -101 0 -102 570 -386 c314 -213 577 -389 585
-393 14 -5 15 11 13 118 l-3 124 -467 315 c-257 173 -466 320 -464 325 1 6
211 151 467 323 l464 313 3 124 c1 69 -1 125 -5 125 -4 -1 -268 -177 -585
-393z"/>
</g>
</svg>
